<svg width="22" height="22" viewBox="0 0 22 22" fill="none" xmlns="http://www.w3.org/2000/svg">
<path d="M2.08469 20.2733C1.96145 20.5204 2.06187 20.8207 2.30899 20.9439C2.5561 21.0671 2.85634 20.9667 2.97958 20.7196L2.08469 20.2733ZM10.9567 3.60399L11.4042 3.82714C11.4983 3.63842 11.4639 3.41095 11.3182 3.25851C11.1725 3.10606 10.9468 3.06143 10.754 3.14693L10.9567 3.60399ZM2.00558 10.6879L1.54362 10.4966L1.54362 10.4966L2.00558 10.6879ZM1.54694 20.6955C1.65689 20.9488 1.95137 21.0651 2.20468 20.9551C2.45799 20.8452 2.57421 20.5507 2.46426 20.2974L1.54694 20.6955ZM2.00002 20.5414L1.62692 20.2085C1.49912 20.3518 1.46462 20.5555 1.53813 20.7329C1.61164 20.9102 1.78018 21.0298 1.97184 21.0406L2.00002 20.5414ZM15.5493 13.7729L15.1292 13.5018L15.1292 13.5018L15.5493 13.7729ZM2.97958 20.7196L11.4042 3.82714L10.5093 3.38084L2.08469 20.2733L2.97958 20.7196ZM10.9567 3.60399C10.754 3.14693 10.7539 3.14697 10.7538 3.14703C10.7537 3.14707 10.7535 3.14714 10.7534 3.14722C10.753 3.14736 10.7526 3.14756 10.752 3.14781C10.7509 3.1483 10.7494 3.14899 10.7474 3.14988C10.7434 3.15166 10.7377 3.15423 10.7302 3.15758C10.7154 3.16428 10.6937 3.1741 10.6656 3.18696C10.6093 3.21269 10.5274 3.25058 10.423 3.29998C10.2143 3.39876 9.91554 3.54364 9.55256 3.7293C8.82726 4.1003 7.84232 4.63579 6.8057 5.29332C5.77056 5.94991 4.67426 6.73421 3.73147 7.60444C2.7936 8.47011 1.97801 9.44767 1.54362 10.4966L2.46753 10.8792C2.82295 10.021 3.52116 9.15943 4.40972 8.33926C5.29336 7.52364 6.33613 6.77537 7.34133 6.13777C8.34505 5.50112 9.30173 4.98083 10.008 4.61959C10.3607 4.43914 10.6502 4.29879 10.8508 4.20387C10.9511 4.15642 11.0291 4.12034 11.0816 4.09631C11.1079 4.0843 11.1277 4.07529 11.1409 4.06939C11.1474 4.06644 11.1523 4.06426 11.1554 4.06286C11.1569 4.06217 11.1581 4.06167 11.1588 4.06136C11.1591 4.06121 11.1593 4.06111 11.1594 4.06106C11.1595 4.06103 11.1595 4.06103 11.1595 4.06102C11.1595 4.06103 11.1595 4.06105 10.9567 3.60399ZM1.54362 10.4966C-0.0956361 14.4551 0.422917 18.1059 1.54694 20.6955L2.46426 20.2974C1.43076 17.9163 0.947562 14.5496 2.46753 10.8792L1.54362 10.4966ZM19.7963 4.42784C20.326 3.63986 20.726 3.00764 21.0081 2.51665C21.2813 2.04105 21.4698 1.65453 21.5388 1.37448C21.5572 1.2998 21.5723 1.21296 21.5717 1.12193C21.5711 1.03396 21.5555 0.904271 21.4768 0.777757C21.275 0.453788 20.9252 0.489539 20.7916 0.520859C20.6409 0.556177 20.492 0.634262 20.3647 0.711685C20.2285 0.794489 20.0772 0.901646 19.9149 1.02645C18.6431 2.00434 16.1783 4.47725 13.488 7.30028C10.7848 10.1368 7.81932 13.3641 5.53063 15.8812C4.38605 17.14 3.41028 18.2216 2.72061 18.9886C2.37577 19.3722 2.10244 19.677 1.91527 19.8861C1.82169 19.9906 1.74964 20.0711 1.70097 20.1256C1.67664 20.1528 1.65815 20.1735 1.64573 20.1874C1.63952 20.1944 1.63483 20.1997 1.63168 20.2032C1.63011 20.2049 1.62892 20.2063 1.62813 20.2072C1.62773 20.2076 1.62743 20.2079 1.62723 20.2082C1.62702 20.2084 1.62692 20.2085 2.00002 20.5414C2.37312 20.8742 2.37321 20.8741 2.37339 20.8739C2.37359 20.8737 2.37387 20.8734 2.37426 20.873C2.37503 20.8721 2.37619 20.8708 2.37774 20.8691C2.38084 20.8656 2.38549 20.8604 2.39165 20.8535C2.40397 20.8397 2.42237 20.8191 2.4466 20.792C2.49507 20.7377 2.56691 20.6574 2.66028 20.5531C2.84701 20.3446 3.11988 20.0402 3.46421 19.6573C4.15289 18.8914 5.1274 17.8111 6.2705 16.554C8.55716 14.0391 11.5166 10.8184 14.2119 7.99016C16.92 5.14843 19.327 2.7399 20.5244 1.81919C20.6708 1.70666 20.7906 1.6231 20.8843 1.56609C20.9869 1.50369 21.0267 1.49286 21.0198 1.49447C21.0152 1.49555 20.9621 1.50848 20.8844 1.49061C20.79 1.46889 20.6912 1.40797 20.6279 1.30631C20.5743 1.22029 20.5718 1.14596 20.5717 1.12877C20.5716 1.10851 20.5746 1.10785 20.5678 1.1353C20.5362 1.26378 20.4153 1.54094 20.1409 2.01856C19.8754 2.48078 19.4898 3.0913 18.9664 3.86997L19.7963 4.42784ZM2.00002 20.5414C1.97184 21.0406 1.97208 21.0406 1.97236 21.0406C1.97249 21.0406 1.9728 21.0406 1.97308 21.0407C1.97362 21.0407 1.9743 21.0407 1.97512 21.0408C1.97675 21.0409 1.97893 21.041 1.98163 21.0411C1.98703 21.0414 1.99456 21.0417 2.00417 21.0421C2.02339 21.043 2.05092 21.044 2.08637 21.045C2.15725 21.047 2.25983 21.0489 2.39089 21.0487C2.65295 21.0481 3.02933 21.0389 3.49435 21.0046C4.42358 20.936 5.71138 20.7669 7.15058 20.3643C10.0282 19.5593 13.5382 17.8118 15.9694 14.044L15.1292 13.5018C12.8703 17.0024 9.60565 18.6392 6.88118 19.4013C5.51931 19.7823 4.29918 19.9425 3.42075 20.0073C2.98194 20.0397 2.62955 20.0482 2.3888 20.0487C2.26846 20.0489 2.17612 20.0472 2.11494 20.0454C2.08435 20.0446 2.06157 20.0437 2.04697 20.0431C2.03968 20.0427 2.03443 20.0425 2.03128 20.0423C2.02971 20.0423 2.02866 20.0422 2.02814 20.0422C2.02788 20.0422 2.02776 20.0422 2.02777 20.0422C2.02777 20.0422 2.02788 20.0422 2.02788 20.0422C2.02802 20.0422 2.02819 20.0422 2.00002 20.5414ZM15.9694 14.044C16.559 13.1303 16.9406 12.4732 17.166 12.0024C17.2783 11.7677 17.3595 11.5636 17.4061 11.3872C17.4495 11.2224 17.4802 11.0195 17.4209 10.8216C17.3475 10.5767 17.1649 10.4262 16.9638 10.3656C16.8007 10.3164 16.6393 10.3295 16.5387 10.3422C16.4302 10.356 16.3152 10.3812 16.2313 10.3989C16.136 10.419 16.0689 10.4321 16.0143 10.4377C15.9534 10.4439 15.9622 10.434 16.0023 10.4478C16.0724 10.4721 16.146 10.5364 16.1753 10.6203C16.193 10.6709 16.1738 10.6724 16.1945 10.5685C16.2136 10.4729 16.2587 10.3262 16.3489 10.1118C16.7151 9.24125 17.6871 7.56571 19.7963 4.42784L18.9664 3.86997C16.8633 6.99865 15.8365 8.75082 15.4271 9.72407C15.3234 9.97063 15.2512 10.1859 15.2138 10.3727C15.1782 10.5515 15.1635 10.7561 15.2313 10.9501C15.3107 11.1774 15.4799 11.3253 15.6757 11.393C15.8415 11.4503 16.006 11.4437 16.1154 11.4326C16.2312 11.4208 16.349 11.3961 16.4377 11.3773C16.5379 11.3562 16.606 11.3417 16.6644 11.3343C16.7306 11.3259 16.7196 11.3365 16.6751 11.323C16.5927 11.2982 16.4969 11.2217 16.463 11.1087C16.4432 11.0428 16.4662 11.0296 16.4391 11.1321C16.4152 11.2229 16.3631 11.3636 16.264 11.5706C16.0664 11.9835 15.7121 12.5984 15.1292 13.5018L15.9694 14.044Z" fill="#499A18"/>
</svg>
